<mxfile host="Electron" agent="Mozilla/5.0 (Windows NT 10.0; Win64; x64) AppleWebKit/537.36 (KHTML, like Gecko) draw.io/24.7.8 Chrome/128.0.6613.36 Electron/32.0.1 Safari/537.36" version="24.7.8">
  <diagram name="Page-1" id="kCG-hv2pJMcdVX7gAV7B">
    <mxGraphModel dx="4097" dy="2389" grid="1" gridSize="10" guides="1" tooltips="1" connect="1" arrows="1" fold="1" page="1" pageScale="1" pageWidth="827" pageHeight="1169" math="0" shadow="0">
      <root>
        <mxCell id="0" />
        <mxCell id="1" parent="0" />
        <mxCell id="dM-3RnIIr8mmShiL9mKM-259" value="" style="group" vertex="1" connectable="0" parent="1">
          <mxGeometry x="110" y="120" width="790" height="820" as="geometry" />
        </mxCell>
        <mxCell id="dM-3RnIIr8mmShiL9mKM-237" value="User Initiates&#xa;ðŸš€ DÃ©ployer une application" style="whiteSpace=wrap;strokeWidth=2;fillColor=#f0a30a;strokeColor=#BD7000;fontColor=#000000;" vertex="1" parent="dM-3RnIIr8mmShiL9mKM-259">
          <mxGeometry x="285" width="222" height="50" as="geometry" />
        </mxCell>
        <mxCell id="dM-3RnIIr8mmShiL9mKM-238" value="User Selects Deployment Type" style="rhombus;strokeWidth=2;whiteSpace=wrap;fillColor=#647687;strokeColor=#314354;fontColor=#ffffff;" vertex="1" parent="dM-3RnIIr8mmShiL9mKM-259">
          <mxGeometry x="264" y="100" width="265" height="265" as="geometry" />
        </mxCell>
        <mxCell id="dM-3RnIIr8mmShiL9mKM-239" value="Trigger: Branch Environment Deployment Workflow" style="whiteSpace=wrap;strokeWidth=2;fillColor=#6d8764;strokeColor=#3A5431;fontColor=#ffffff;" vertex="1" parent="dM-3RnIIr8mmShiL9mKM-259">
          <mxGeometry y="434" width="384" height="34" as="geometry" />
        </mxCell>
        <mxCell id="dM-3RnIIr8mmShiL9mKM-240" value="CDK: Provisions Full Infrastructure&#xa;(VPC, ECR, ECS Cluster, Service, LB, IAM)" style="whiteSpace=wrap;strokeWidth=2;fillColor=#6d8764;strokeColor=#3A5431;fontColor=#ffffff;" vertex="1" parent="dM-3RnIIr8mmShiL9mKM-259">
          <mxGeometry x="37" y="518" width="309" height="50" as="geometry" />
        </mxCell>
        <mxCell id="dM-3RnIIr8mmShiL9mKM-241" value="GitHub Actions: Builds &amp; Pushes Docker Image" style="whiteSpace=wrap;strokeWidth=2;fillColor=#6d8764;strokeColor=#3A5431;fontColor=#ffffff;" vertex="1" parent="dM-3RnIIr8mmShiL9mKM-259">
          <mxGeometry x="19" y="618" width="345" height="34" as="geometry" />
        </mxCell>
        <mxCell id="dM-3RnIIr8mmShiL9mKM-242" value="CDK: Deploys Application to New ECS Service" style="whiteSpace=wrap;strokeWidth=2;fillColor=#6d8764;strokeColor=#3A5431;fontColor=#ffffff;" vertex="1" parent="dM-3RnIIr8mmShiL9mKM-259">
          <mxGeometry x="23" y="702" width="337" height="34" as="geometry" />
        </mxCell>
        <mxCell id="dM-3RnIIr8mmShiL9mKM-243" value="Trigger: App-Only Deployment Workflow" style="whiteSpace=wrap;strokeWidth=2;fillColor=#1ba1e2;strokeColor=#006EAF;fontColor=#ffffff;" vertex="1" parent="dM-3RnIIr8mmShiL9mKM-259">
          <mxGeometry x="448" y="434" width="304" height="34" as="geometry" />
        </mxCell>
        <mxCell id="dM-3RnIIr8mmShiL9mKM-244" value="CDK: Verifies Existing Infrastructure" style="whiteSpace=wrap;strokeWidth=2;fillColor=#1ba1e2;strokeColor=#006EAF;fontColor=#ffffff;" vertex="1" parent="dM-3RnIIr8mmShiL9mKM-259">
          <mxGeometry x="464" y="526" width="273" height="34" as="geometry" />
        </mxCell>
        <mxCell id="dM-3RnIIr8mmShiL9mKM-245" value="GitHub Actions: Builds &amp; Pushes Docker Image" style="whiteSpace=wrap;strokeWidth=2;fillColor=#1ba1e2;strokeColor=#006EAF;fontColor=#ffffff;" vertex="1" parent="dM-3RnIIr8mmShiL9mKM-259">
          <mxGeometry x="428" y="618" width="345" height="34" as="geometry" />
        </mxCell>
        <mxCell id="dM-3RnIIr8mmShiL9mKM-246" value="CDK: Updates Existing ECS Service with New Image" style="whiteSpace=wrap;strokeWidth=2;fillColor=#1ba1e2;strokeColor=#006EAF;fontColor=#ffffff;" vertex="1" parent="dM-3RnIIr8mmShiL9mKM-259">
          <mxGeometry x="410" y="702" width="380" height="34" as="geometry" />
        </mxCell>
        <mxCell id="dM-3RnIIr8mmShiL9mKM-247" value="Deployment Complete" style="whiteSpace=wrap;strokeWidth=2;fillColor=#a20025;fontColor=#ffffff;strokeColor=#6F0000;" vertex="1" parent="dM-3RnIIr8mmShiL9mKM-259">
          <mxGeometry x="309" y="786" width="175" height="34" as="geometry" />
        </mxCell>
        <mxCell id="dM-3RnIIr8mmShiL9mKM-248" value="" style="curved=1;startArrow=none;endArrow=block;exitX=0.5;exitY=1;entryX=0.5;entryY=0;rounded=0;fillColor=#b1ddf0;strokeColor=#10739e;" edge="1" parent="dM-3RnIIr8mmShiL9mKM-259" source="dM-3RnIIr8mmShiL9mKM-237" target="dM-3RnIIr8mmShiL9mKM-238">
          <mxGeometry relative="1" as="geometry">
            <Array as="points" />
          </mxGeometry>
        </mxCell>
        <mxCell id="dM-3RnIIr8mmShiL9mKM-249" value="Choice: Complete Environment" style="curved=1;startArrow=none;endArrow=block;exitX=0;exitY=0.91;entryX=0.5;entryY=-0.01;rounded=0;fillColor=#60a917;strokeColor=#2D7600;" edge="1" parent="dM-3RnIIr8mmShiL9mKM-259" source="dM-3RnIIr8mmShiL9mKM-238" target="dM-3RnIIr8mmShiL9mKM-239">
          <mxGeometry relative="1" as="geometry">
            <Array as="points">
              <mxPoint x="192" y="399" />
            </Array>
          </mxGeometry>
        </mxCell>
        <mxCell id="dM-3RnIIr8mmShiL9mKM-250" value="" style="curved=1;startArrow=none;endArrow=block;exitX=0.5;exitY=0.99;entryX=0.5;entryY=-0.01;rounded=0;fillColor=#6d8764;strokeColor=#3A5431;" edge="1" parent="dM-3RnIIr8mmShiL9mKM-259" source="dM-3RnIIr8mmShiL9mKM-239" target="dM-3RnIIr8mmShiL9mKM-240">
          <mxGeometry relative="1" as="geometry">
            <Array as="points" />
          </mxGeometry>
        </mxCell>
        <mxCell id="dM-3RnIIr8mmShiL9mKM-251" value="" style="curved=1;startArrow=none;endArrow=block;exitX=0.5;exitY=0.99;entryX=0.5;entryY=-0.01;rounded=0;fillColor=#6d8764;strokeColor=#3A5431;" edge="1" parent="dM-3RnIIr8mmShiL9mKM-259" source="dM-3RnIIr8mmShiL9mKM-240" target="dM-3RnIIr8mmShiL9mKM-241">
          <mxGeometry relative="1" as="geometry">
            <Array as="points" />
          </mxGeometry>
        </mxCell>
        <mxCell id="dM-3RnIIr8mmShiL9mKM-252" value="" style="curved=1;startArrow=none;endArrow=block;exitX=0.5;exitY=0.99;entryX=0.5;entryY=-0.01;rounded=0;fillColor=#6d8764;strokeColor=#3A5431;" edge="1" parent="dM-3RnIIr8mmShiL9mKM-259" source="dM-3RnIIr8mmShiL9mKM-241" target="dM-3RnIIr8mmShiL9mKM-242">
          <mxGeometry relative="1" as="geometry">
            <Array as="points" />
          </mxGeometry>
        </mxCell>
        <mxCell id="dM-3RnIIr8mmShiL9mKM-253" value="Choice: App-Only" style="curved=1;startArrow=none;endArrow=block;exitX=1;exitY=0.91;entryX=0.5;entryY=-0.01;rounded=0;fillColor=#1ba1e2;strokeColor=#006EAF;" edge="1" parent="dM-3RnIIr8mmShiL9mKM-259" source="dM-3RnIIr8mmShiL9mKM-238" target="dM-3RnIIr8mmShiL9mKM-243">
          <mxGeometry relative="1" as="geometry">
            <Array as="points">
              <mxPoint x="600" y="399" />
            </Array>
          </mxGeometry>
        </mxCell>
        <mxCell id="dM-3RnIIr8mmShiL9mKM-254" value="" style="curved=1;startArrow=none;endArrow=block;exitX=0.5;exitY=0.99;entryX=0.5;entryY=-0.01;rounded=0;fillColor=#1ba1e2;strokeColor=#006EAF;" edge="1" parent="dM-3RnIIr8mmShiL9mKM-259" source="dM-3RnIIr8mmShiL9mKM-243" target="dM-3RnIIr8mmShiL9mKM-244">
          <mxGeometry relative="1" as="geometry">
            <Array as="points" />
          </mxGeometry>
        </mxCell>
        <mxCell id="dM-3RnIIr8mmShiL9mKM-255" value="" style="curved=1;startArrow=none;endArrow=block;exitX=0.5;exitY=0.99;entryX=0.5;entryY=-0.01;rounded=0;fillColor=#1ba1e2;strokeColor=#006EAF;" edge="1" parent="dM-3RnIIr8mmShiL9mKM-259" source="dM-3RnIIr8mmShiL9mKM-244" target="dM-3RnIIr8mmShiL9mKM-245">
          <mxGeometry relative="1" as="geometry">
            <Array as="points" />
          </mxGeometry>
        </mxCell>
        <mxCell id="dM-3RnIIr8mmShiL9mKM-256" value="" style="curved=1;startArrow=none;endArrow=block;exitX=0.5;exitY=0.99;entryX=0.5;entryY=-0.01;rounded=0;fillColor=#1ba1e2;strokeColor=#006EAF;" edge="1" parent="dM-3RnIIr8mmShiL9mKM-259" source="dM-3RnIIr8mmShiL9mKM-245" target="dM-3RnIIr8mmShiL9mKM-246">
          <mxGeometry relative="1" as="geometry">
            <Array as="points" />
          </mxGeometry>
        </mxCell>
        <mxCell id="dM-3RnIIr8mmShiL9mKM-257" value="" style="curved=1;startArrow=none;endArrow=block;exitX=0.5;exitY=0.99;entryX=0.03;entryY=-0.01;rounded=0;fillColor=#b1ddf0;strokeColor=#10739e;" edge="1" parent="dM-3RnIIr8mmShiL9mKM-259" source="dM-3RnIIr8mmShiL9mKM-242" target="dM-3RnIIr8mmShiL9mKM-247">
          <mxGeometry relative="1" as="geometry">
            <Array as="points">
              <mxPoint x="192" y="761" />
            </Array>
          </mxGeometry>
        </mxCell>
        <mxCell id="dM-3RnIIr8mmShiL9mKM-258" value="" style="curved=1;startArrow=none;endArrow=block;exitX=0.5;exitY=0.99;entryX=0.97;entryY=-0.01;rounded=0;fillColor=#b1ddf0;strokeColor=#10739e;" edge="1" parent="dM-3RnIIr8mmShiL9mKM-259" source="dM-3RnIIr8mmShiL9mKM-246" target="dM-3RnIIr8mmShiL9mKM-247">
          <mxGeometry relative="1" as="geometry">
            <Array as="points">
              <mxPoint x="600" y="761" />
            </Array>
          </mxGeometry>
        </mxCell>
        <mxCell id="dM-3RnIIr8mmShiL9mKM-260" value="" style="group" vertex="1" connectable="0" parent="1">
          <mxGeometry x="2210" width="2752" height="2048" as="geometry" />
        </mxCell>
        <mxCell id="dM-3RnIIr8mmShiL9mKM-132" value="Finalization" style="whiteSpace=wrap;strokeWidth=2;verticalAlign=top;fillColor=#b0e3e6;strokeColor=#0e8088;" vertex="1" parent="dM-3RnIIr8mmShiL9mKM-260">
          <mxGeometry x="2279" y="1880" width="435" height="168" as="geometry" />
        </mxCell>
        <mxCell id="dM-3RnIIr8mmShiL9mKM-133" value="Output: Load Balancer URL &amp; Deployment Status" style="whiteSpace=wrap;strokeWidth=2;fillColor=#f5f5f5;strokeColor=#666666;fontColor=#333333;" vertex="1" parent="dM-3RnIIr8mmShiL9mKM-260">
          <mxGeometry x="2314" y="1905" width="365" height="34" as="geometry" />
        </mxCell>
        <mxCell id="dM-3RnIIr8mmShiL9mKM-134" value="Workflow Complete: Branch Environment Ready" style="whiteSpace=wrap;strokeWidth=2;fillColor=#f5f5f5;strokeColor=#666666;fontColor=#333333;" vertex="1" parent="dM-3RnIIr8mmShiL9mKM-260">
          <mxGeometry x="2316" y="1989" width="360" height="34" as="geometry" />
        </mxCell>
        <mxCell id="dM-3RnIIr8mmShiL9mKM-135" value="CDK: Deploy Application to ECS" style="whiteSpace=wrap;strokeWidth=2;verticalAlign=top;fillColor=#fad9d5;strokeColor=#ae4132;" vertex="1" parent="dM-3RnIIr8mmShiL9mKM-260">
          <mxGeometry x="2239" y="1326" width="513" height="504" as="geometry" />
        </mxCell>
        <mxCell id="dM-3RnIIr8mmShiL9mKM-136" value="CDK Synthesize (Update with new image in Task Definition)" style="whiteSpace=wrap;strokeWidth=2;fillColor=#f5f5f5;strokeColor=#666666;fontColor=#333333;" vertex="1" parent="dM-3RnIIr8mmShiL9mKM-260">
          <mxGeometry x="2276" y="1351" width="439" height="34" as="geometry" />
        </mxCell>
        <mxCell id="dM-3RnIIr8mmShiL9mKM-137" value="CDK Deploy (Applies changes to Branch Stack)" style="whiteSpace=wrap;strokeWidth=2;fillColor=#f5f5f5;strokeColor=#666666;fontColor=#333333;" vertex="1" parent="dM-3RnIIr8mmShiL9mKM-260">
          <mxGeometry x="2324" y="1435" width="344" height="34" as="geometry" />
        </mxCell>
        <mxCell id="dM-3RnIIr8mmShiL9mKM-138" value="AWS CloudFormation: Update ECS Service" style="whiteSpace=wrap;strokeWidth=2;fillColor=#f5f5f5;strokeColor=#666666;fontColor=#333333;" vertex="1" parent="dM-3RnIIr8mmShiL9mKM-260">
          <mxGeometry x="2339" y="1519" width="314" height="34" as="geometry" />
        </mxCell>
        <mxCell id="dM-3RnIIr8mmShiL9mKM-139" value="- Create New ECS Task Definition Revision (with new image)" style="whiteSpace=wrap;strokeWidth=2;fillColor=#f5f5f5;strokeColor=#666666;fontColor=#333333;" vertex="1" parent="dM-3RnIIr8mmShiL9mKM-260">
          <mxGeometry x="2274" y="1603" width="443" height="34" as="geometry" />
        </mxCell>
        <mxCell id="dM-3RnIIr8mmShiL9mKM-140" value="- Update ECS Service to use new Task Definition Revision" style="whiteSpace=wrap;strokeWidth=2;fillColor=#f5f5f5;strokeColor=#666666;fontColor=#333333;" vertex="1" parent="dM-3RnIIr8mmShiL9mKM-260">
          <mxGeometry x="2286" y="1687" width="421" height="34" as="geometry" />
        </mxCell>
        <mxCell id="dM-3RnIIr8mmShiL9mKM-141" value="- ECS initiates new Fargate tasks, registers with ALB" style="whiteSpace=wrap;strokeWidth=2;fillColor=#f5f5f5;strokeColor=#666666;fontColor=#333333;" vertex="1" parent="dM-3RnIIr8mmShiL9mKM-260">
          <mxGeometry x="2302" y="1771" width="389" height="34" as="geometry" />
        </mxCell>
        <mxCell id="dM-3RnIIr8mmShiL9mKM-142" value="Docker Build &amp; Push" style="whiteSpace=wrap;strokeWidth=2;verticalAlign=top;fillColor=#b1ddf0;strokeColor=#10739e;" vertex="1" parent="dM-3RnIIr8mmShiL9mKM-260">
          <mxGeometry x="2254" y="940" width="483" height="336" as="geometry" />
        </mxCell>
        <mxCell id="dM-3RnIIr8mmShiL9mKM-143" value="GitHub Actions: Build Docker Image (from branch code)" style="whiteSpace=wrap;strokeWidth=2;fillColor=#f5f5f5;strokeColor=#666666;fontColor=#333333;" vertex="1" parent="dM-3RnIIr8mmShiL9mKM-260">
          <mxGeometry x="2289" y="965" width="413" height="34" as="geometry" />
        </mxCell>
        <mxCell id="dM-3RnIIr8mmShiL9mKM-144" value="Login to AWS ECR" style="whiteSpace=wrap;strokeWidth=2;fillColor=#f5f5f5;strokeColor=#666666;fontColor=#333333;" vertex="1" parent="dM-3RnIIr8mmShiL9mKM-260">
          <mxGeometry x="2426" y="1049" width="139" height="34" as="geometry" />
        </mxCell>
        <mxCell id="dM-3RnIIr8mmShiL9mKM-145" value="Tag Docker Image (e.g., branch_name, git_sha)" style="whiteSpace=wrap;strokeWidth=2;fillColor=#f5f5f5;strokeColor=#666666;fontColor=#333333;" vertex="1" parent="dM-3RnIIr8mmShiL9mKM-260">
          <mxGeometry x="2318" y="1133" width="356" height="34" as="geometry" />
        </mxCell>
        <mxCell id="dM-3RnIIr8mmShiL9mKM-146" value="Push Docker Image to Branch ECR Repository" style="whiteSpace=wrap;strokeWidth=2;fillColor=#f5f5f5;strokeColor=#666666;fontColor=#333333;" vertex="1" parent="dM-3RnIIr8mmShiL9mKM-260">
          <mxGeometry x="2328" y="1217" width="337" height="34" as="geometry" />
        </mxCell>
        <mxCell id="dM-3RnIIr8mmShiL9mKM-147" value="CDK: Provision Initial Infrastructure" style="whiteSpace=wrap;strokeWidth=2;verticalAlign=top;fillColor=#d5e8d4;strokeColor=#82b366;fontSize=13;" vertex="1" parent="dM-3RnIIr8mmShiL9mKM-260">
          <mxGeometry y="386" width="2632" height="504" as="geometry" />
        </mxCell>
        <mxCell id="dM-3RnIIr8mmShiL9mKM-148" value="CDK Synthesize (Generates CloudFormation Template for Branch Stack)" style="whiteSpace=wrap;strokeWidth=2;fillColor=#f5f5f5;strokeColor=#666666;fontColor=#333333;" vertex="1" parent="dM-3RnIIr8mmShiL9mKM-260">
          <mxGeometry x="1153" y="495" width="526" height="34" as="geometry" />
        </mxCell>
        <mxCell id="dM-3RnIIr8mmShiL9mKM-149" value="Set up Node.js &amp; Install Dependencies (incl. CDK)" style="whiteSpace=wrap;strokeWidth=2;fillColor=#f5f5f5;strokeColor=#666666;fontColor=#333333;" vertex="1" parent="dM-3RnIIr8mmShiL9mKM-260">
          <mxGeometry x="1231" y="411" width="370" height="34" as="geometry" />
        </mxCell>
        <mxCell id="dM-3RnIIr8mmShiL9mKM-150" value="CDK Deploy Branch Stack" style="whiteSpace=wrap;strokeWidth=2;fillColor=#f5f5f5;strokeColor=#666666;fontColor=#333333;" vertex="1" parent="dM-3RnIIr8mmShiL9mKM-260">
          <mxGeometry x="1318" y="579" width="195" height="34" as="geometry" />
        </mxCell>
        <mxCell id="dM-3RnIIr8mmShiL9mKM-151" value="AWS CloudFormation: Create Resources" style="whiteSpace=wrap;strokeWidth=2;fillColor=#f5f5f5;strokeColor=#666666;fontColor=#333333;" vertex="1" parent="dM-3RnIIr8mmShiL9mKM-260">
          <mxGeometry x="1267" y="663" width="298" height="34" as="geometry" />
        </mxCell>
        <mxCell id="dM-3RnIIr8mmShiL9mKM-152" value="- VPC &amp; Networking (Subnets, Route Tables, IGW, NAT Gateway if new)" style="whiteSpace=wrap;strokeWidth=2;fillColor=#f5f5f5;strokeColor=#666666;fontColor=#333333;" vertex="1" parent="dM-3RnIIr8mmShiL9mKM-260">
          <mxGeometry x="35" y="747" width="522" height="34" as="geometry" />
        </mxCell>
        <mxCell id="dM-3RnIIr8mmShiL9mKM-153" value="- IAM Roles (Task Role, Execution Role)" style="whiteSpace=wrap;strokeWidth=2;fillColor=#f5f5f5;strokeColor=#666666;fontColor=#333333;" vertex="1" parent="dM-3RnIIr8mmShiL9mKM-260">
          <mxGeometry x="607" y="747" width="292" height="34" as="geometry" />
        </mxCell>
        <mxCell id="dM-3RnIIr8mmShiL9mKM-154" value="- ECR Repository (branch-specific name)" style="whiteSpace=wrap;strokeWidth=2;fillColor=#f5f5f5;strokeColor=#666666;fontColor=#333333;" vertex="1" parent="dM-3RnIIr8mmShiL9mKM-260">
          <mxGeometry x="949" y="747" width="303" height="34" as="geometry" />
        </mxCell>
        <mxCell id="dM-3RnIIr8mmShiL9mKM-155" value="- ECS Cluster (or use existing)" style="whiteSpace=wrap;strokeWidth=2;fillColor=#f5f5f5;strokeColor=#666666;fontColor=#333333;" vertex="1" parent="dM-3RnIIr8mmShiL9mKM-260">
          <mxGeometry x="1302" y="747" width="228" height="34" as="geometry" />
        </mxCell>
        <mxCell id="dM-3RnIIr8mmShiL9mKM-156" value="- ECS Service (Fargate, with placeholder Task Definition)" style="whiteSpace=wrap;strokeWidth=2;fillColor=#f5f5f5;strokeColor=#666666;fontColor=#333333;" vertex="1" parent="dM-3RnIIr8mmShiL9mKM-260">
          <mxGeometry x="1580" y="747" width="421" height="34" as="geometry" />
        </mxCell>
        <mxCell id="dM-3RnIIr8mmShiL9mKM-157" value="- Application Load Balancer &amp; Target Group" style="whiteSpace=wrap;strokeWidth=2;fillColor=#f5f5f5;strokeColor=#666666;fontColor=#333333;" vertex="1" parent="dM-3RnIIr8mmShiL9mKM-260">
          <mxGeometry x="2051" y="747" width="326" height="34" as="geometry" />
        </mxCell>
        <mxCell id="dM-3RnIIr8mmShiL9mKM-158" value="- Security Groups" style="whiteSpace=wrap;strokeWidth=2;fillColor=#f5f5f5;strokeColor=#666666;fontColor=#333333;" vertex="1" parent="dM-3RnIIr8mmShiL9mKM-260">
          <mxGeometry x="2426" y="747" width="139" height="34" as="geometry" />
        </mxCell>
        <mxCell id="dM-3RnIIr8mmShiL9mKM-159" value="Infrastructure Provisioned" style="whiteSpace=wrap;strokeWidth=2;fillColor=#f5f5f5;strokeColor=#666666;fontColor=#333333;" vertex="1" parent="dM-3RnIIr8mmShiL9mKM-260">
          <mxGeometry x="2396" y="831" width="201" height="34" as="geometry" />
        </mxCell>
        <mxCell id="dM-3RnIIr8mmShiL9mKM-160" value="Workflow Trigger" style="whiteSpace=wrap;strokeWidth=2;verticalAlign=top;fillColor=#fad7ac;strokeColor=#b46504;" vertex="1" parent="dM-3RnIIr8mmShiL9mKM-260">
          <mxGeometry x="1179" width="473" height="84" as="geometry" />
        </mxCell>
        <mxCell id="dM-3RnIIr8mmShiL9mKM-161" value="User Pushes New Branch / Manually Triggers Workflow" style="whiteSpace=wrap;strokeWidth=2;fillColor=#f5f5f5;strokeColor=#666666;fontColor=#333333;" vertex="1" parent="dM-3RnIIr8mmShiL9mKM-260">
          <mxGeometry x="1214" y="25" width="403" height="34" as="geometry" />
        </mxCell>
        <mxCell id="dM-3RnIIr8mmShiL9mKM-162" value="GitHub Actions: Initialize Job" style="whiteSpace=wrap;strokeWidth=2;fillColor=#f5f5f5;strokeColor=#666666;fontColor=#333333;" vertex="1" parent="dM-3RnIIr8mmShiL9mKM-260">
          <mxGeometry x="1304" y="134" width="224" height="34" as="geometry" />
        </mxCell>
        <mxCell id="dM-3RnIIr8mmShiL9mKM-163" value="Checkout Source Code" style="whiteSpace=wrap;strokeWidth=2;fillColor=#f5f5f5;strokeColor=#666666;fontColor=#333333;" vertex="1" parent="dM-3RnIIr8mmShiL9mKM-260">
          <mxGeometry x="1328" y="218" width="175" height="34" as="geometry" />
        </mxCell>
        <mxCell id="dM-3RnIIr8mmShiL9mKM-164" value="Configure AWS Credentials (OIDC)" style="whiteSpace=wrap;strokeWidth=2;fillColor=#f5f5f5;strokeColor=#666666;fontColor=#333333;" vertex="1" parent="dM-3RnIIr8mmShiL9mKM-260">
          <mxGeometry x="1288" y="302" width="255" height="34" as="geometry" />
        </mxCell>
        <mxCell id="dM-3RnIIr8mmShiL9mKM-166" value="" style="curved=1;startArrow=none;endArrow=block;exitX=0.5;exitY=1;entryX=0.5;entryY=0;rounded=0;fillColor=#f5f5f5;strokeColor=#666666;" edge="1" parent="dM-3RnIIr8mmShiL9mKM-260" source="dM-3RnIIr8mmShiL9mKM-161" target="dM-3RnIIr8mmShiL9mKM-162">
          <mxGeometry relative="1" as="geometry">
            <Array as="points" />
          </mxGeometry>
        </mxCell>
        <mxCell id="dM-3RnIIr8mmShiL9mKM-167" value="" style="curved=1;startArrow=none;endArrow=block;exitX=0.5;exitY=1;entryX=0.5;entryY=0;rounded=0;fillColor=#f5f5f5;strokeColor=#666666;" edge="1" parent="dM-3RnIIr8mmShiL9mKM-260" source="dM-3RnIIr8mmShiL9mKM-162" target="dM-3RnIIr8mmShiL9mKM-163">
          <mxGeometry relative="1" as="geometry">
            <Array as="points" />
          </mxGeometry>
        </mxCell>
        <mxCell id="dM-3RnIIr8mmShiL9mKM-168" value="" style="curved=1;startArrow=none;endArrow=block;exitX=0.5;exitY=1;entryX=0.5;entryY=0;rounded=0;fillColor=#f5f5f5;strokeColor=#666666;" edge="1" parent="dM-3RnIIr8mmShiL9mKM-260" source="dM-3RnIIr8mmShiL9mKM-163" target="dM-3RnIIr8mmShiL9mKM-164">
          <mxGeometry relative="1" as="geometry">
            <Array as="points" />
          </mxGeometry>
        </mxCell>
        <mxCell id="dM-3RnIIr8mmShiL9mKM-169" value="" style="curved=1;startArrow=none;endArrow=block;exitX=0.5;exitY=1;entryX=0.5;entryY=0;rounded=0;fillColor=#f5f5f5;strokeColor=#666666;" edge="1" parent="dM-3RnIIr8mmShiL9mKM-260" source="dM-3RnIIr8mmShiL9mKM-164" target="dM-3RnIIr8mmShiL9mKM-149">
          <mxGeometry relative="1" as="geometry">
            <Array as="points" />
          </mxGeometry>
        </mxCell>
        <mxCell id="dM-3RnIIr8mmShiL9mKM-170" value="" style="curved=1;startArrow=none;endArrow=block;exitX=0.5;exitY=1;entryX=0.5;entryY=0;rounded=0;fillColor=#f5f5f5;strokeColor=#666666;" edge="1" parent="dM-3RnIIr8mmShiL9mKM-260" source="dM-3RnIIr8mmShiL9mKM-149" target="dM-3RnIIr8mmShiL9mKM-148">
          <mxGeometry relative="1" as="geometry">
            <Array as="points" />
          </mxGeometry>
        </mxCell>
        <mxCell id="dM-3RnIIr8mmShiL9mKM-171" value="" style="curved=1;startArrow=none;endArrow=block;exitX=0.5;exitY=1;entryX=0.5;entryY=0;rounded=0;fillColor=#f5f5f5;strokeColor=#666666;" edge="1" parent="dM-3RnIIr8mmShiL9mKM-260" source="dM-3RnIIr8mmShiL9mKM-148" target="dM-3RnIIr8mmShiL9mKM-150">
          <mxGeometry relative="1" as="geometry">
            <Array as="points" />
          </mxGeometry>
        </mxCell>
        <mxCell id="dM-3RnIIr8mmShiL9mKM-172" value="" style="curved=1;startArrow=none;endArrow=block;exitX=0.5;exitY=1;entryX=0.5;entryY=0;rounded=0;fillColor=#f5f5f5;strokeColor=#666666;" edge="1" parent="dM-3RnIIr8mmShiL9mKM-260" source="dM-3RnIIr8mmShiL9mKM-150" target="dM-3RnIIr8mmShiL9mKM-151">
          <mxGeometry relative="1" as="geometry">
            <Array as="points" />
          </mxGeometry>
        </mxCell>
        <mxCell id="dM-3RnIIr8mmShiL9mKM-173" value="" style="curved=1;startArrow=none;endArrow=block;exitX=0;exitY=0.66;entryX=0.5;entryY=0;rounded=0;fillColor=#f5f5f5;strokeColor=#666666;" edge="1" parent="dM-3RnIIr8mmShiL9mKM-260" source="dM-3RnIIr8mmShiL9mKM-151" target="dM-3RnIIr8mmShiL9mKM-152">
          <mxGeometry relative="1" as="geometry">
            <Array as="points">
              <mxPoint x="296" y="722" />
            </Array>
          </mxGeometry>
        </mxCell>
        <mxCell id="dM-3RnIIr8mmShiL9mKM-174" value="" style="curved=1;startArrow=none;endArrow=block;exitX=0;exitY=0.78;entryX=0.5;entryY=0;rounded=0;fillColor=#f5f5f5;strokeColor=#666666;" edge="1" parent="dM-3RnIIr8mmShiL9mKM-260" source="dM-3RnIIr8mmShiL9mKM-151" target="dM-3RnIIr8mmShiL9mKM-153">
          <mxGeometry relative="1" as="geometry">
            <Array as="points">
              <mxPoint x="753" y="722" />
            </Array>
          </mxGeometry>
        </mxCell>
        <mxCell id="dM-3RnIIr8mmShiL9mKM-175" value="" style="curved=1;startArrow=none;endArrow=block;exitX=0.07;exitY=1;entryX=0.5;entryY=0;rounded=0;fillColor=#f5f5f5;strokeColor=#666666;" edge="1" parent="dM-3RnIIr8mmShiL9mKM-260" source="dM-3RnIIr8mmShiL9mKM-151" target="dM-3RnIIr8mmShiL9mKM-154">
          <mxGeometry relative="1" as="geometry">
            <Array as="points">
              <mxPoint x="1100" y="722" />
            </Array>
          </mxGeometry>
        </mxCell>
        <mxCell id="dM-3RnIIr8mmShiL9mKM-176" value="" style="curved=1;startArrow=none;endArrow=block;exitX=0.5;exitY=1;entryX=0.5;entryY=0;rounded=0;fillColor=#f5f5f5;strokeColor=#666666;" edge="1" parent="dM-3RnIIr8mmShiL9mKM-260" source="dM-3RnIIr8mmShiL9mKM-151" target="dM-3RnIIr8mmShiL9mKM-155">
          <mxGeometry relative="1" as="geometry">
            <Array as="points" />
          </mxGeometry>
        </mxCell>
        <mxCell id="dM-3RnIIr8mmShiL9mKM-177" value="" style="curved=1;startArrow=none;endArrow=block;exitX=1;exitY=0.99;entryX=0.5;entryY=0;rounded=0;fillColor=#f5f5f5;strokeColor=#666666;" edge="1" parent="dM-3RnIIr8mmShiL9mKM-260" source="dM-3RnIIr8mmShiL9mKM-151" target="dM-3RnIIr8mmShiL9mKM-156">
          <mxGeometry relative="1" as="geometry">
            <Array as="points">
              <mxPoint x="1790" y="722" />
            </Array>
          </mxGeometry>
        </mxCell>
        <mxCell id="dM-3RnIIr8mmShiL9mKM-178" value="" style="curved=1;startArrow=none;endArrow=block;exitX=1;exitY=0.73;entryX=0.5;entryY=0;rounded=0;fillColor=#f5f5f5;strokeColor=#666666;" edge="1" parent="dM-3RnIIr8mmShiL9mKM-260" source="dM-3RnIIr8mmShiL9mKM-151" target="dM-3RnIIr8mmShiL9mKM-157">
          <mxGeometry relative="1" as="geometry">
            <Array as="points">
              <mxPoint x="2214" y="722" />
            </Array>
          </mxGeometry>
        </mxCell>
        <mxCell id="dM-3RnIIr8mmShiL9mKM-179" value="" style="curved=1;startArrow=none;endArrow=block;exitX=1;exitY=0.67;entryX=0.5;entryY=0;rounded=0;fillColor=#f5f5f5;strokeColor=#666666;" edge="1" parent="dM-3RnIIr8mmShiL9mKM-260" source="dM-3RnIIr8mmShiL9mKM-151" target="dM-3RnIIr8mmShiL9mKM-158">
          <mxGeometry relative="1" as="geometry">
            <Array as="points">
              <mxPoint x="2496" y="722" />
            </Array>
          </mxGeometry>
        </mxCell>
        <mxCell id="dM-3RnIIr8mmShiL9mKM-180" value="" style="curved=1;startArrow=none;endArrow=block;exitX=0.5;exitY=1;entryX=0.5;entryY=0;rounded=0;fillColor=#f5f5f5;strokeColor=#666666;" edge="1" parent="dM-3RnIIr8mmShiL9mKM-260" source="dM-3RnIIr8mmShiL9mKM-158" target="dM-3RnIIr8mmShiL9mKM-159">
          <mxGeometry relative="1" as="geometry">
            <Array as="points" />
          </mxGeometry>
        </mxCell>
        <mxCell id="dM-3RnIIr8mmShiL9mKM-181" value="" style="curved=1;startArrow=none;endArrow=block;exitX=0.5;exitY=1;entryX=0.5;entryY=0;rounded=0;fillColor=#f5f5f5;strokeColor=#666666;" edge="1" parent="dM-3RnIIr8mmShiL9mKM-260" source="dM-3RnIIr8mmShiL9mKM-159" target="dM-3RnIIr8mmShiL9mKM-143">
          <mxGeometry relative="1" as="geometry">
            <Array as="points" />
          </mxGeometry>
        </mxCell>
        <mxCell id="dM-3RnIIr8mmShiL9mKM-182" value="" style="curved=1;startArrow=none;endArrow=block;exitX=0.5;exitY=1;entryX=0.5;entryY=0;rounded=0;fillColor=#f5f5f5;strokeColor=#666666;" edge="1" parent="dM-3RnIIr8mmShiL9mKM-260" source="dM-3RnIIr8mmShiL9mKM-143" target="dM-3RnIIr8mmShiL9mKM-144">
          <mxGeometry relative="1" as="geometry">
            <Array as="points" />
          </mxGeometry>
        </mxCell>
        <mxCell id="dM-3RnIIr8mmShiL9mKM-183" value="" style="curved=1;startArrow=none;endArrow=block;exitX=0.5;exitY=1;entryX=0.5;entryY=0;rounded=0;fillColor=#f5f5f5;strokeColor=#666666;" edge="1" parent="dM-3RnIIr8mmShiL9mKM-260" source="dM-3RnIIr8mmShiL9mKM-144" target="dM-3RnIIr8mmShiL9mKM-145">
          <mxGeometry relative="1" as="geometry">
            <Array as="points" />
          </mxGeometry>
        </mxCell>
        <mxCell id="dM-3RnIIr8mmShiL9mKM-184" value="" style="curved=1;startArrow=none;endArrow=block;exitX=0.5;exitY=1;entryX=0.5;entryY=0;rounded=0;fillColor=#f5f5f5;strokeColor=#666666;" edge="1" parent="dM-3RnIIr8mmShiL9mKM-260" source="dM-3RnIIr8mmShiL9mKM-145" target="dM-3RnIIr8mmShiL9mKM-146">
          <mxGeometry relative="1" as="geometry">
            <Array as="points" />
          </mxGeometry>
        </mxCell>
        <mxCell id="dM-3RnIIr8mmShiL9mKM-185" value="" style="curved=1;startArrow=none;endArrow=block;exitX=0.5;exitY=1;entryX=0.5;entryY=0;rounded=0;fillColor=#f5f5f5;strokeColor=#666666;" edge="1" parent="dM-3RnIIr8mmShiL9mKM-260" source="dM-3RnIIr8mmShiL9mKM-146" target="dM-3RnIIr8mmShiL9mKM-136">
          <mxGeometry relative="1" as="geometry">
            <Array as="points" />
          </mxGeometry>
        </mxCell>
        <mxCell id="dM-3RnIIr8mmShiL9mKM-186" value="" style="curved=1;startArrow=none;endArrow=block;exitX=0.5;exitY=1;entryX=0.5;entryY=0;rounded=0;fillColor=#f5f5f5;strokeColor=#666666;" edge="1" parent="dM-3RnIIr8mmShiL9mKM-260" source="dM-3RnIIr8mmShiL9mKM-136" target="dM-3RnIIr8mmShiL9mKM-137">
          <mxGeometry relative="1" as="geometry">
            <Array as="points" />
          </mxGeometry>
        </mxCell>
        <mxCell id="dM-3RnIIr8mmShiL9mKM-187" value="" style="curved=1;startArrow=none;endArrow=block;exitX=0.5;exitY=1;entryX=0.5;entryY=0;rounded=0;fillColor=#f5f5f5;strokeColor=#666666;" edge="1" parent="dM-3RnIIr8mmShiL9mKM-260" source="dM-3RnIIr8mmShiL9mKM-137" target="dM-3RnIIr8mmShiL9mKM-138">
          <mxGeometry relative="1" as="geometry">
            <Array as="points" />
          </mxGeometry>
        </mxCell>
        <mxCell id="dM-3RnIIr8mmShiL9mKM-188" value="" style="curved=1;startArrow=none;endArrow=block;exitX=0.5;exitY=1;entryX=0.5;entryY=0;rounded=0;fillColor=#f5f5f5;strokeColor=#666666;" edge="1" parent="dM-3RnIIr8mmShiL9mKM-260" source="dM-3RnIIr8mmShiL9mKM-138" target="dM-3RnIIr8mmShiL9mKM-139">
          <mxGeometry relative="1" as="geometry">
            <Array as="points" />
          </mxGeometry>
        </mxCell>
        <mxCell id="dM-3RnIIr8mmShiL9mKM-189" value="" style="curved=1;startArrow=none;endArrow=block;exitX=0.5;exitY=1;entryX=0.5;entryY=0;rounded=0;fillColor=#f5f5f5;strokeColor=#666666;" edge="1" parent="dM-3RnIIr8mmShiL9mKM-260" source="dM-3RnIIr8mmShiL9mKM-139" target="dM-3RnIIr8mmShiL9mKM-140">
          <mxGeometry relative="1" as="geometry">
            <Array as="points" />
          </mxGeometry>
        </mxCell>
        <mxCell id="dM-3RnIIr8mmShiL9mKM-190" value="" style="curved=1;startArrow=none;endArrow=block;exitX=0.5;exitY=1;entryX=0.5;entryY=0;rounded=0;fillColor=#f5f5f5;strokeColor=#666666;" edge="1" parent="dM-3RnIIr8mmShiL9mKM-260" source="dM-3RnIIr8mmShiL9mKM-140" target="dM-3RnIIr8mmShiL9mKM-141">
          <mxGeometry relative="1" as="geometry">
            <Array as="points" />
          </mxGeometry>
        </mxCell>
        <mxCell id="dM-3RnIIr8mmShiL9mKM-191" value="" style="curved=1;startArrow=none;endArrow=block;exitX=0.5;exitY=1;entryX=0.5;entryY=0;rounded=0;fillColor=#f5f5f5;strokeColor=#666666;" edge="1" parent="dM-3RnIIr8mmShiL9mKM-260" source="dM-3RnIIr8mmShiL9mKM-141" target="dM-3RnIIr8mmShiL9mKM-133">
          <mxGeometry relative="1" as="geometry">
            <Array as="points" />
          </mxGeometry>
        </mxCell>
        <mxCell id="dM-3RnIIr8mmShiL9mKM-192" value="" style="curved=1;startArrow=none;endArrow=block;exitX=0.5;exitY=1;entryX=0.5;entryY=0;rounded=0;fillColor=#f5f5f5;strokeColor=#666666;" edge="1" parent="dM-3RnIIr8mmShiL9mKM-260" source="dM-3RnIIr8mmShiL9mKM-133" target="dM-3RnIIr8mmShiL9mKM-134">
          <mxGeometry relative="1" as="geometry">
            <Array as="points" />
          </mxGeometry>
        </mxCell>
        <mxCell id="dM-3RnIIr8mmShiL9mKM-286" value="" style="group" vertex="1" connectable="0" parent="1">
          <mxGeometry x="6250" y="330" width="1469" height="1154" as="geometry" />
        </mxCell>
        <mxCell id="dM-3RnIIr8mmShiL9mKM-261" value="User" style="shape=umlLifeline;perimeter=lifelinePerimeter;whiteSpace=wrap;container=1;dropTarget=0;collapsible=0;recursiveResize=0;outlineConnect=0;portConstraint=eastwest;newEdgeStyle={&quot;edgeStyle&quot;:&quot;elbowEdgeStyle&quot;,&quot;elbow&quot;:&quot;vertical&quot;,&quot;curved&quot;:0,&quot;rounded&quot;:0};size=65;" vertex="1" parent="dM-3RnIIr8mmShiL9mKM-286">
          <mxGeometry width="150" height="1154" as="geometry" />
        </mxCell>
        <mxCell id="dM-3RnIIr8mmShiL9mKM-262" value="GitHub" style="shape=umlLifeline;perimeter=lifelinePerimeter;whiteSpace=wrap;container=1;dropTarget=0;collapsible=0;recursiveResize=0;outlineConnect=0;portConstraint=eastwest;newEdgeStyle={&quot;edgeStyle&quot;:&quot;elbowEdgeStyle&quot;,&quot;elbow&quot;:&quot;vertical&quot;,&quot;curved&quot;:0,&quot;rounded&quot;:0};size=65;" vertex="1" parent="dM-3RnIIr8mmShiL9mKM-286">
          <mxGeometry x="200" width="150" height="1154" as="geometry" />
        </mxCell>
        <mxCell id="dM-3RnIIr8mmShiL9mKM-263" value="GitHub Actions" style="shape=umlLifeline;perimeter=lifelinePerimeter;whiteSpace=wrap;container=1;dropTarget=0;collapsible=0;recursiveResize=0;outlineConnect=0;portConstraint=eastwest;newEdgeStyle={&quot;edgeStyle&quot;:&quot;elbowEdgeStyle&quot;,&quot;elbow&quot;:&quot;vertical&quot;,&quot;curved&quot;:0,&quot;rounded&quot;:0};size=65;" vertex="1" parent="dM-3RnIIr8mmShiL9mKM-286">
          <mxGeometry x="557" width="150" height="1154" as="geometry" />
        </mxCell>
        <mxCell id="dM-3RnIIr8mmShiL9mKM-264" value="CDK" style="shape=umlLifeline;perimeter=lifelinePerimeter;whiteSpace=wrap;container=1;dropTarget=0;collapsible=0;recursiveResize=0;outlineConnect=0;portConstraint=eastwest;newEdgeStyle={&quot;edgeStyle&quot;:&quot;elbowEdgeStyle&quot;,&quot;elbow&quot;:&quot;vertical&quot;,&quot;curved&quot;:0,&quot;rounded&quot;:0};size=65;" vertex="1" parent="dM-3RnIIr8mmShiL9mKM-286">
          <mxGeometry x="919" width="150" height="1154" as="geometry" />
        </mxCell>
        <mxCell id="dM-3RnIIr8mmShiL9mKM-265" value="AWS ECR" style="shape=umlLifeline;perimeter=lifelinePerimeter;whiteSpace=wrap;container=1;dropTarget=0;collapsible=0;recursiveResize=0;outlineConnect=0;portConstraint=eastwest;newEdgeStyle={&quot;edgeStyle&quot;:&quot;elbowEdgeStyle&quot;,&quot;elbow&quot;:&quot;vertical&quot;,&quot;curved&quot;:0,&quot;rounded&quot;:0};size=65;" vertex="1" parent="dM-3RnIIr8mmShiL9mKM-286">
          <mxGeometry x="1119" width="150" height="1154" as="geometry" />
        </mxCell>
        <mxCell id="dM-3RnIIr8mmShiL9mKM-266" value="AWS ECS" style="shape=umlLifeline;perimeter=lifelinePerimeter;whiteSpace=wrap;container=1;dropTarget=0;collapsible=0;recursiveResize=0;outlineConnect=0;portConstraint=eastwest;newEdgeStyle={&quot;edgeStyle&quot;:&quot;elbowEdgeStyle&quot;,&quot;elbow&quot;:&quot;vertical&quot;,&quot;curved&quot;:0,&quot;rounded&quot;:0};size=65;" vertex="1" parent="dM-3RnIIr8mmShiL9mKM-286">
          <mxGeometry x="1319" width="150" height="1154" as="geometry" />
        </mxCell>
        <mxCell id="dM-3RnIIr8mmShiL9mKM-267" value="alt" style="shape=umlFrame;dashed=1;pointerEvents=0;dropTarget=0;strokeColor=#B3B3B3;height=20;width=30" vertex="1" parent="dM-3RnIIr8mmShiL9mKM-286">
          <mxGeometry x="264" y="365" width="1141" height="694" as="geometry" />
        </mxCell>
        <mxCell id="dM-3RnIIr8mmShiL9mKM-268" value="[Environment Exists]" style="text;strokeColor=none;fillColor=none;align=center;verticalAlign=middle;whiteSpace=wrap;" vertex="1" parent="dM-3RnIIr8mmShiL9mKM-267">
          <mxGeometry x="30" width="1111" height="20" as="geometry" />
        </mxCell>
        <mxCell id="dM-3RnIIr8mmShiL9mKM-269" value="[Environment Does Not Exist]" style="shape=line;dashed=1;whiteSpace=wrap;verticalAlign=top;labelPosition=center;verticalLabelPosition=middle;align=center;strokeColor=#B3B3B3;" vertex="1" parent="dM-3RnIIr8mmShiL9mKM-267">
          <mxGeometry y="549" width="1141" height="4" as="geometry" />
        </mxCell>
        <mxCell id="dM-3RnIIr8mmShiL9mKM-270" value="Trigger &quot;App-Only Deployment&quot; workflow (manually or via commit)" style="verticalAlign=bottom;edgeStyle=elbowEdgeStyle;elbow=vertical;curved=0;rounded=0;endArrow=block;" edge="1" parent="dM-3RnIIr8mmShiL9mKM-286" source="dM-3RnIIr8mmShiL9mKM-261" target="dM-3RnIIr8mmShiL9mKM-263">
          <mxGeometry relative="1" as="geometry">
            <Array as="points">
              <mxPoint x="362" y="107" />
            </Array>
          </mxGeometry>
        </mxCell>
        <mxCell id="dM-3RnIIr8mmShiL9mKM-271" value="Inputs: branch/environment name" style="curved=1;endArrow=block;rounded=0;" edge="1" parent="dM-3RnIIr8mmShiL9mKM-286" source="dM-3RnIIr8mmShiL9mKM-263" target="dM-3RnIIr8mmShiL9mKM-263">
          <mxGeometry relative="1" as="geometry">
            <Array as="points">
              <mxPoint x="683" y="159" />
              <mxPoint x="683" y="189" />
            </Array>
          </mxGeometry>
        </mxCell>
        <mxCell id="dM-3RnIIr8mmShiL9mKM-272" value="Check if environment infrastructure exists" style="verticalAlign=bottom;edgeStyle=elbowEdgeStyle;elbow=vertical;curved=0;rounded=0;endArrow=block;" edge="1" parent="dM-3RnIIr8mmShiL9mKM-286" source="dM-3RnIIr8mmShiL9mKM-263" target="dM-3RnIIr8mmShiL9mKM-264">
          <mxGeometry relative="1" as="geometry">
            <Array as="points">
              <mxPoint x="822" y="241" />
            </Array>
          </mxGeometry>
        </mxCell>
        <mxCell id="dM-3RnIIr8mmShiL9mKM-273" value="Verify ECS Service/Cluster for environment exists" style="verticalAlign=bottom;edgeStyle=elbowEdgeStyle;elbow=vertical;curved=0;rounded=0;endArrow=block;" edge="1" parent="dM-3RnIIr8mmShiL9mKM-286" source="dM-3RnIIr8mmShiL9mKM-264" target="dM-3RnIIr8mmShiL9mKM-266">
          <mxGeometry relative="1" as="geometry">
            <Array as="points">
              <mxPoint x="1203" y="293" />
            </Array>
          </mxGeometry>
        </mxCell>
        <mxCell id="dM-3RnIIr8mmShiL9mKM-274" value="Environment found / not found" style="verticalAlign=bottom;edgeStyle=elbowEdgeStyle;elbow=vertical;curved=0;rounded=0;dashed=1;dashPattern=2 3;endArrow=block;" edge="1" parent="dM-3RnIIr8mmShiL9mKM-286" source="dM-3RnIIr8mmShiL9mKM-266" target="dM-3RnIIr8mmShiL9mKM-264">
          <mxGeometry relative="1" as="geometry">
            <Array as="points">
              <mxPoint x="1206" y="345" />
            </Array>
          </mxGeometry>
        </mxCell>
        <mxCell id="dM-3RnIIr8mmShiL9mKM-275" value="Environment confirmed" style="verticalAlign=bottom;edgeStyle=elbowEdgeStyle;elbow=vertical;curved=0;rounded=0;dashed=1;dashPattern=2 3;endArrow=block;" edge="1" parent="dM-3RnIIr8mmShiL9mKM-286" source="dM-3RnIIr8mmShiL9mKM-264" target="dM-3RnIIr8mmShiL9mKM-263">
          <mxGeometry relative="1" as="geometry">
            <Array as="points">
              <mxPoint x="825" y="443" />
            </Array>
          </mxGeometry>
        </mxCell>
        <mxCell id="dM-3RnIIr8mmShiL9mKM-276" value="Build Docker Image (from specified branch code)" style="curved=1;endArrow=block;rounded=0;" edge="1" parent="dM-3RnIIr8mmShiL9mKM-286" source="dM-3RnIIr8mmShiL9mKM-263" target="dM-3RnIIr8mmShiL9mKM-263">
          <mxGeometry relative="1" as="geometry">
            <Array as="points">
              <mxPoint x="683" y="495" />
              <mxPoint x="683" y="525" />
            </Array>
          </mxGeometry>
        </mxCell>
        <mxCell id="dM-3RnIIr8mmShiL9mKM-277" value="Push Docker Image to existing ECR repository (for the environment)" style="verticalAlign=bottom;edgeStyle=elbowEdgeStyle;elbow=vertical;curved=0;rounded=0;endArrow=block;" edge="1" parent="dM-3RnIIr8mmShiL9mKM-286" source="dM-3RnIIr8mmShiL9mKM-263" target="dM-3RnIIr8mmShiL9mKM-265">
          <mxGeometry relative="1" as="geometry">
            <Array as="points">
              <mxPoint x="922" y="577" />
            </Array>
          </mxGeometry>
        </mxCell>
        <mxCell id="dM-3RnIIr8mmShiL9mKM-278" value="Image push successful" style="verticalAlign=bottom;edgeStyle=elbowEdgeStyle;elbow=vertical;curved=0;rounded=0;dashed=1;dashPattern=2 3;endArrow=block;" edge="1" parent="dM-3RnIIr8mmShiL9mKM-286" source="dM-3RnIIr8mmShiL9mKM-265" target="dM-3RnIIr8mmShiL9mKM-263">
          <mxGeometry relative="1" as="geometry">
            <Array as="points">
              <mxPoint x="925" y="629" />
            </Array>
          </mxGeometry>
        </mxCell>
        <mxCell id="dM-3RnIIr8mmShiL9mKM-279" value="Update ECS Service (with new image tag)" style="verticalAlign=bottom;edgeStyle=elbowEdgeStyle;elbow=vertical;curved=0;rounded=0;endArrow=block;" edge="1" parent="dM-3RnIIr8mmShiL9mKM-286" source="dM-3RnIIr8mmShiL9mKM-263" target="dM-3RnIIr8mmShiL9mKM-264">
          <mxGeometry relative="1" as="geometry">
            <Array as="points">
              <mxPoint x="822" y="681" />
            </Array>
          </mxGeometry>
        </mxCell>
        <mxCell id="dM-3RnIIr8mmShiL9mKM-280" value="Update Task Definition &amp; Deploy new version of Application" style="verticalAlign=bottom;edgeStyle=elbowEdgeStyle;elbow=vertical;curved=0;rounded=0;endArrow=block;" edge="1" parent="dM-3RnIIr8mmShiL9mKM-286" source="dM-3RnIIr8mmShiL9mKM-264" target="dM-3RnIIr8mmShiL9mKM-266">
          <mxGeometry relative="1" as="geometry">
            <Array as="points">
              <mxPoint x="1216" y="733" />
            </Array>
          </mxGeometry>
        </mxCell>
        <mxCell id="dM-3RnIIr8mmShiL9mKM-281" value="Application deployment successful" style="verticalAlign=bottom;edgeStyle=elbowEdgeStyle;elbow=vertical;curved=0;rounded=0;dashed=1;dashPattern=2 3;endArrow=block;" edge="1" parent="dM-3RnIIr8mmShiL9mKM-286" source="dM-3RnIIr8mmShiL9mKM-266" target="dM-3RnIIr8mmShiL9mKM-264">
          <mxGeometry relative="1" as="geometry">
            <Array as="points">
              <mxPoint x="1206" y="785" />
            </Array>
          </mxGeometry>
        </mxCell>
        <mxCell id="dM-3RnIIr8mmShiL9mKM-282" value="Application deployment complete" style="verticalAlign=bottom;edgeStyle=elbowEdgeStyle;elbow=vertical;curved=0;rounded=0;dashed=1;dashPattern=2 3;endArrow=block;" edge="1" parent="dM-3RnIIr8mmShiL9mKM-286" source="dM-3RnIIr8mmShiL9mKM-264" target="dM-3RnIIr8mmShiL9mKM-263">
          <mxGeometry relative="1" as="geometry">
            <Array as="points">
              <mxPoint x="825" y="837" />
            </Array>
          </mxGeometry>
        </mxCell>
        <mxCell id="dM-3RnIIr8mmShiL9mKM-283" value="Report deployment status" style="verticalAlign=bottom;edgeStyle=elbowEdgeStyle;elbow=vertical;curved=0;rounded=0;endArrow=block;" edge="1" parent="dM-3RnIIr8mmShiL9mKM-286" source="dM-3RnIIr8mmShiL9mKM-263" target="dM-3RnIIr8mmShiL9mKM-262">
          <mxGeometry relative="1" as="geometry">
            <Array as="points">
              <mxPoint x="465" y="889" />
            </Array>
          </mxGeometry>
        </mxCell>
        <mxCell id="dM-3RnIIr8mmShiL9mKM-284" value="Environment not found, advise user" style="verticalAlign=bottom;edgeStyle=elbowEdgeStyle;elbow=vertical;curved=0;rounded=0;dashed=1;dashPattern=2 3;endArrow=block;" edge="1" parent="dM-3RnIIr8mmShiL9mKM-286" source="dM-3RnIIr8mmShiL9mKM-264" target="dM-3RnIIr8mmShiL9mKM-263">
          <mxGeometry relative="1" as="geometry">
            <Array as="points">
              <mxPoint x="825" y="987" />
            </Array>
          </mxGeometry>
        </mxCell>
        <mxCell id="dM-3RnIIr8mmShiL9mKM-285" value="Report error: Environment does not exist" style="verticalAlign=bottom;edgeStyle=elbowEdgeStyle;elbow=vertical;curved=0;rounded=0;endArrow=block;" edge="1" parent="dM-3RnIIr8mmShiL9mKM-286" source="dM-3RnIIr8mmShiL9mKM-263" target="dM-3RnIIr8mmShiL9mKM-262">
          <mxGeometry relative="1" as="geometry">
            <Array as="points">
              <mxPoint x="465" y="1039" />
            </Array>
          </mxGeometry>
        </mxCell>
      </root>
    </mxGraphModel>
  </diagram>
</mxfile>
